<svg xmlns="http://www.w3.org/2000/svg" viewBox="0 0 1200 780" width="1200" height="780">
  <defs>
    <linearGradient id="gpurp" x1="0%" y1="0%" x2="100%" y2="100%"><stop offset="0%" style="stop-color:#7c3aed"/><stop offset="100%" style="stop-color:#a78bfa"/></linearGradient>
    <filter id="glow"><feGaussianBlur stdDeviation="6" result="b"/><feMerge><feMergeNode in="b"/><feMergeNode in="SourceGraphic"/></feMerge></filter>
    <filter id="blur"><feGaussianBlur stdDeviation="40"/></filter>
  </defs>
  <rect width="1200" height="780" fill="#0a0a0f"/>
  <circle cx="80" cy="80" r="220" fill="#a78bfa" opacity="0.07" filter="url(#blur)"/>
  <circle cx="1150" cy="700" r="160" fill="#2dd4bf" opacity="0.05" filter="url(#blur)"/>
  <pattern id="dots" x="0" y="0" width="24" height="24" patternUnits="userSpaceOnUse"><circle cx="1" cy="1" r="1" fill="rgba(167,139,250,0.07)"/></pattern>
  <rect width="1200" height="780" fill="url(#dots)"/>
  <!-- NAV -->
  <rect width="1200" height="58" fill="#0a0a0f" fill-opacity="0.95"/>
  <line x1="0" y1="58" x2="1200" y2="58" stroke="rgba(167,139,250,0.15)" stroke-width="1"/>
  <rect x="26" y="15" width="172" height="30" rx="15" fill="rgba(124,58,237,0.2)" stroke="rgba(167,139,250,0.4)" stroke-width="1"/>
  <text x="44" y="35" font-size="12" fill="#a78bfa" font-family="sans-serif" font-weight="600">← Kembali ke Beranda</text>
  <rect x="910" y="16" width="88" height="28" rx="14" fill="#12121a" stroke="#374151" stroke-width="1"/>
  <text x="954" y="34" text-anchor="middle" font-size="12" fill="#e2e8f0" font-family="sans-serif">← Prev</text>
  <rect x="1008" y="16" width="88" height="28" rx="14" fill="#12121a" stroke="#374151" stroke-width="1"/>
  <text x="1052" y="34" text-anchor="middle" font-size="12" fill="#e2e8f0" font-family="sans-serif">Next →</text>
  <!-- BOOK -->
  <rect x="18" y="66" width="1164" height="660" rx="10" fill="#1a1a2e" stroke="rgba(167,139,250,0.08)" stroke-width="1"/>
  <line x1="601" y1="66" x2="601" y2="726" stroke="rgba(167,139,250,0.4)" stroke-width="2" filter="url(#glow)"/>
  <rect x="596" y="66" width="10" height="660" fill="rgba(0,0,0,0.6)"/>
  <!-- LEFT: COVER Purple -->
  <rect x="20" y="68" width="574" height="656" rx="8" fill="#0f172a"/>
  <rect x="20" y="68" width="574" height="656" rx="8" fill="none" stroke="#a78bfa" stroke-width="2" filter="url(#glow)"/>
  <rect x="181" y="84" width="232" height="22" rx="11" fill="rgba(45,212,191,0.08)" stroke="rgba(45,212,191,0.35)" stroke-width="1"/>
  <text x="297" y="99" text-anchor="middle" font-size="8" fill="#2dd4bf" font-family="sans-serif" font-weight="700" letter-spacing="2">SMAN 1 PALEMBANG KELAS X</text>
  <text x="297" y="186" text-anchor="middle" font-size="76" fill="url(#gpurp)" font-family="sans-serif" font-weight="900">Bab 5</text>
  <text x="297" y="220" text-anchor="middle" font-size="14" fill="#e2e8f0" font-family="sans-serif" font-weight="700">Kreativitas &amp; Etika Konten Media Sosial</text>
  <!-- Illustration circle - phone/camera -->
  <circle cx="297" cy="414" r="128" fill="#12121a" stroke="#a78bfa" stroke-width="2.5" filter="url(#glow)"/>
  <circle cx="297" cy="414" r="122" fill="none" stroke="rgba(167,139,250,0.2)" stroke-width="1"/>
  <!-- Phone frame -->
  <rect x="256" y="356" width="82" height="130" rx="10" fill="#1a1a2e" stroke="#a78bfa" stroke-width="1.5"/>
  <rect x="260" y="368" width="74" height="92" rx="4" fill="#0a0a0f" stroke="rgba(167,139,250,0.3)" stroke-width="1"/>
  <!-- Content on phone screen -->
  <rect x="264" y="372" width="66" height="20" rx="3" fill="rgba(167,139,250,0.2)"/>
  <rect x="264" y="396" width="66" height="18" rx="3" fill="rgba(45,212,191,0.15)"/>
  <rect x="264" y="418" width="66" height="18" rx="3" fill="rgba(167,139,250,0.15)"/>
  <!-- Home button -->
  <circle cx="297" cy="472" r="5" fill="none" stroke="#a78bfa" stroke-width="1"/>
  <!-- Camera icon -->
  <rect x="352" y="374" width="54" height="44" rx="8" fill="#1a1a2e" stroke="#2dd4bf" stroke-width="1.5"/>
  <circle cx="379" cy="396" r="12" fill="none" stroke="#2dd4bf" stroke-width="1.5"/>
  <circle cx="379" cy="396" r="6" fill="#2dd4bf" opacity="0.4"/>
  <rect x="385" y="378" width="10" height="6" rx="3" fill="#2dd4bf" opacity="0.5"/>
  <!-- Like/heart icons floating -->
  <text x="350" y="456" font-size="16" font-family="sans-serif" fill="#a78bfa" opacity="0.7">❤</text>
  <text x="215" y="440" font-size="12" font-family="sans-serif" fill="#2dd4bf" opacity="0.7">▶</text>
  <text x="215" y="395" font-size="10" font-family="sans-serif" fill="#a78bfa" opacity="0.5">✦</text>
  <text x="365" y="350" font-size="12" font-family="sans-serif" fill="#2dd4bf" opacity="0.5">✦</text>
  <text x="297" y="566" text-anchor="middle" font-size="9" fill="#475569" font-family="sans-serif">Geser / Klik Next untuk membuka</text>
  <line x1="30" y1="706" x2="586" y2="706" stroke="rgba(255,255,255,0.05)" stroke-width="1"/>
  <text x="38" y="720" font-size="9" fill="#475569" font-family="sans-serif">Bab 5 Kreativitas &amp; Etika Konten Media Sosial</text>
  <text x="580" y="720" text-anchor="end" font-size="9" fill="#475569" font-family="sans-serif">1</text>
  <!-- RIGHT: MATERI -->
  <rect x="607" y="68" width="572" height="656" rx="8" fill="#12121a"/>
  <circle cx="1148" cy="692" r="30" fill="#12121a" stroke="#a78bfa" stroke-width="1.5"/>
  <circle cx="1148" cy="680" r="12" fill="#1a1a2e" stroke="#a78bfa" stroke-width="1"/>
  <ellipse cx="1148" cy="700" rx="16" ry="12" fill="#1a1a2e" stroke="#a78bfa" stroke-width="1"/>
  <text x="624" y="104" font-size="15" fill="#a78bfa" font-family="sans-serif" font-weight="700">Apersepsi</text>
  <line x1="624" y1="112" x2="1162" y2="112" stroke="rgba(255,255,255,0.06)" stroke-width="1"/>
  <rect x="624" y="122" width="524" height="7" rx="3" fill="#374151" opacity="0.8"/>
  <rect x="624" y="135" width="524" height="7" rx="3" fill="#374151" opacity="0.8"/>
  <rect x="624" y="148" width="480" height="7" rx="3" fill="#374151" opacity="0.7"/>
  <rect x="624" y="168" width="524" height="7" rx="3" fill="#374151" opacity="0.7"/>
  <rect x="624" y="181" width="460" height="7" rx="3" fill="#374151" opacity="0.6"/>
  <rect x="624" y="202" width="524" height="82" rx="6" fill="rgba(124,58,237,0.12)"/>
  <rect x="624" y="202" width="4" height="82" rx="2" fill="#a78bfa"/>
  <text x="638" y="220" font-size="11" fill="#ffffff" font-family="sans-serif" font-weight="700">Tujuan Pembelajaran</text>
  <rect x="638" y="228" width="390" height="6" rx="3" fill="#4b5563" opacity="0.8"/>
  <rect x="638" y="240" width="470" height="6" rx="3" fill="#4b5563" opacity="0.7"/>
  <rect x="638" y="252" width="430" height="6" rx="3" fill="#4b5563" opacity="0.7"/>
  <rect x="638" y="264" width="360" height="6" rx="3" fill="#4b5563" opacity="0.6"/>
  <text x="624" y="310" font-size="13" fill="#2dd4bf" font-family="sans-serif" font-weight="700">A. Produksi Konten Multimedia</text>
  <!-- 4 Media type cards -->
  <rect x="624" y="320" width="120" height="82" rx="8" fill="#0a0a0f" stroke="rgba(167,139,250,0.35)" stroke-width="1"/>
  <text x="684" y="350" text-anchor="middle" font-size="22" font-family="sans-serif">🎬</text>
  <rect x="636" y="364" width="96" height="6" rx="3" fill="#a78bfa" opacity="0.5"/>
  <rect x="636" y="376" width="80" height="5" rx="2" fill="#4b5563" opacity="0.5"/>
  <rect x="754" y="320" width="120" height="82" rx="8" fill="#0a0a0f" stroke="rgba(45,212,191,0.35)" stroke-width="1"/>
  <text x="814" y="350" text-anchor="middle" font-size="22" font-family="sans-serif">🎵</text>
  <rect x="766" y="364" width="96" height="6" rx="3" fill="#2dd4bf" opacity="0.5"/>
  <rect x="766" y="376" width="80" height="5" rx="2" fill="#4b5563" opacity="0.5"/>
  <rect x="884" y="320" width="120" height="82" rx="8" fill="#0a0a0f" stroke="rgba(167,139,250,0.35)" stroke-width="1"/>
  <text x="944" y="350" text-anchor="middle" font-size="22" font-family="sans-serif">📸</text>
  <rect x="896" y="364" width="96" height="6" rx="3" fill="#a78bfa" opacity="0.5"/>
  <rect x="896" y="376" width="80" height="5" rx="2" fill="#4b5563" opacity="0.5"/>
  <rect x="1014" y="320" width="120" height="82" rx="8" fill="#0a0a0f" stroke="rgba(45,212,191,0.35)" stroke-width="1"/>
  <text x="1074" y="350" text-anchor="middle" font-size="22" font-family="sans-serif">📝</text>
  <rect x="1026" y="364" width="96" height="6" rx="3" fill="#2dd4bf" opacity="0.5"/>
  <rect x="1026" y="376" width="80" height="5" rx="2" fill="#4b5563" opacity="0.5"/>
  <!-- HAKI box -->
  <text x="624" y="430" font-size="13" fill="#a78bfa" font-family="sans-serif" font-weight="700">B. HAKI &amp; Etika Digital</text>
  <rect x="624" y="442" width="524" height="82" rx="6" fill="#0a0a0f" stroke="rgba(45,212,191,0.2)" stroke-width="1"/>
  <rect x="624" y="442" width="524" height="22" rx="6" fill="rgba(45,212,191,0.12)"/>
  <rect x="636" y="476" width="500" height="6" rx="3" fill="#4b5563" opacity="0.7"/>
  <rect x="636" y="488" width="480" height="6" rx="3" fill="#4b5563" opacity="0.6"/>
  <rect x="636" y="500" width="440" height="6" rx="3" fill="#4b5563" opacity="0.6"/>
  <!-- Step list -->
  <rect x="624" y="540" width="524" height="112" rx="6" fill="none" stroke="rgba(167,139,250,0.18)" stroke-width="1" stroke-dasharray="4,3"/>
  <rect x="636" y="550" width="26" height="26" rx="5" fill="rgba(167,139,250,0.2)" stroke="rgba(167,139,250,0.5)" stroke-width="1"/>
  <text x="649" y="567" text-anchor="middle" font-size="11" fill="#a78bfa" font-family="sans-serif" font-weight="700">1</text>
  <rect x="672" y="556" width="160" height="7" rx="3" fill="#e2e8f0" opacity="0.7"/>
  <rect x="672" y="568" width="450" height="5" rx="2" fill="#4b5563" opacity="0.5"/>
  <rect x="636" y="588" width="26" height="26" rx="5" fill="rgba(167,139,250,0.2)" stroke="rgba(167,139,250,0.5)" stroke-width="1"/>
  <text x="649" y="605" text-anchor="middle" font-size="11" fill="#a78bfa" font-family="sans-serif" font-weight="700">2</text>
  <rect x="672" y="594" width="140" height="7" rx="3" fill="#e2e8f0" opacity="0.7"/>
  <rect x="672" y="606" width="420" height="5" rx="2" fill="#4b5563" opacity="0.5"/>
  <rect x="636" y="626" width="26" height="26" rx="5" fill="rgba(167,139,250,0.2)" stroke="rgba(167,139,250,0.5)" stroke-width="1"/>
  <text x="649" y="643" text-anchor="middle" font-size="11" fill="#a78bfa" font-family="sans-serif" font-weight="700">3</text>
  <rect x="672" y="632" width="150" height="7" rx="3" fill="#e2e8f0" opacity="0.7"/>
  <line x1="615" y1="706" x2="1162" y2="706" stroke="rgba(255,255,255,0.05)" stroke-width="1"/>
  <text x="624" y="720" font-size="9" fill="#475569" font-family="sans-serif">Bab 5 Kreativitas &amp; Etika Konten Media Sosial</text>
  <text x="1155" y="720" text-anchor="end" font-size="9" fill="#475569" font-family="sans-serif">2</text>
  <text x="600" y="776" text-anchor="middle" font-size="9" fill="#444" font-family="monospace">MOCKUP — BAB 5 : Kreativitas &amp; Etika Konten Media Sosial</text>
</svg>
