<svg xmlns="http://www.w3.org/2000/svg" viewBox="0 0 1200 780" width="1200" height="780">
  <defs><style>.sk{stroke:#222;fill:none;stroke-width:2;}.fl{fill:#f0f0f0;stroke:#555;stroke-width:1.5;}.fm{fill:#d8d8d8;stroke:#666;stroke-width:1;}.fd{fill:#2e2e2e;}.lh{stroke:#bbb;fill:none;stroke-width:1.5;}.ds{stroke:#aaa;fill:none;stroke-dasharray:5,3;}</style></defs>
  <rect width="1200" height="780" fill="#fff"/>
  <rect x="6" y="6" width="1188" height="768" rx="3" class="sk" stroke-dasharray="8,4"/>
  <text x="600" y="20" text-anchor="middle" font-size="10" fill="#aaa" font-family="monospace">WIREFRAME — BAB 6 : Pengelolaan Informasi Digital</text>
  <rect x="20" y="26" width="1160" height="48" class="fl"/>
  <rect x="32" y="36" width="148" height="26" rx="13" class="sk"/>
  <line x1="46" y1="49" x2="164" y2="49" class="lh"/>
  <rect x="916" y="37" width="88" height="24" rx="12" class="sk"/>
  <rect x="1014" y="37" width="88" height="24" rx="12" class="fd"/>
  <rect x="20" y="82" width="1160" height="650" rx="8" class="fl"/>
  <line x1="600" y1="82" x2="600" y2="732" stroke="#888" stroke-width="3"/>
  <line x1="596" y1="82" x2="596" y2="732" stroke="#ccc" stroke-width="2"/>
  <line x1="604" y1="82" x2="604" y2="732" stroke="#ccc" stroke-width="2"/>
  <rect x="22" y="84" width="572" height="646" rx="6" fill="#e8e8e8" stroke="#666" stroke-width="1.5"/>
  <rect x="190" y="100" width="216" height="20" rx="10" class="fm"/>
  <rect x="150" y="138" width="296" height="82" rx="6" fill="#c8c8c8" stroke="#888" stroke-width="1.5"/>
  <text x="298" y="194" text-anchor="middle" font-size="62" fill="#aaa" font-family="sans-serif" font-weight="900" opacity="0.35">6</text>
  <line x1="148" y1="238" x2="448" y2="238" class="lh"/>
  <line x1="180" y1="254" x2="416" y2="254" class="lh"/>
  <circle cx="298" cy="420" r="128" fill="#d4d4d4" stroke="#777" stroke-width="2"/>
  <circle cx="298" cy="420" r="106" class="ds"/>
  <!-- Database cylinder stack (bab 6 = database/SQL) -->
  <ellipse cx="298" cy="354" rx="52" ry="14" fill="#c0c0c0" stroke="#999" stroke-width="1.5"/>
  <rect x="246" y="354" width="104" height="34" fill="#c4c4c4" stroke="#999" stroke-width="1.5"/>
  <ellipse cx="298" cy="388" rx="52" ry="14" fill="#c0c0c0" stroke="#999" stroke-width="1.5"/>
  <rect x="246" y="388" width="104" height="34" fill="#c8c8c8" stroke="#999" stroke-width="1.5"/>
  <ellipse cx="298" cy="422" rx="52" ry="14" fill="#bbb" stroke="#999" stroke-width="1.5"/>
  <rect x="246" y="422" width="104" height="34" fill="#cccccc" stroke="#999" stroke-width="1.5"/>
  <ellipse cx="298" cy="456" rx="52" ry="14" fill="#bbb" stroke="#999" stroke-width="1.5"/>
  <line x1="280" y1="372" x2="316" y2="372" class="lh" stroke-width="1"/>
  <line x1="272" y1="406" x2="324" y2="406" class="lh" stroke-width="1"/>
  <line x1="274" y1="440" x2="322" y2="440" class="lh" stroke-width="1"/>
  <line x1="226" y1="572" x2="370" y2="572" class="ds"/>
  <line x1="36" y1="712" x2="582" y2="712" class="lh" stroke-width="1"/>
  <line x1="36" y1="722" x2="220" y2="722" class="lh"/>
  <line x1="554" y1="722" x2="582" y2="722" class="lh"/>
  <rect x="606" y="84" width="572" height="646" rx="6" fill="#f8f8f8" stroke="#666" stroke-width="1.5"/>
  <circle cx="1138" cy="698" r="30" fill="#ddd" stroke="#888" stroke-width="1.5"/>
  <circle cx="1138" cy="686" r="13" fill="#ccc" stroke="#aaa" stroke-width="1"/>
  <rect x="622" y="100" width="240" height="16" rx="4" class="fm" stroke-width="0"/>
  <line x1="622" y1="124" x2="1158" y2="124" class="lh" stroke-width="1"/>
  <line x1="622" y1="140" x2="1148" y2="140" class="lh"/>
  <line x1="622" y1="154" x2="1090" y2="154" class="lh"/>
  <line x1="622" y1="174" x2="1148" y2="174" class="lh"/>
  <line x1="622" y1="188" x2="1100" y2="188" class="lh"/>
  <!-- SQL table (bab 6) -->
  <rect x="622" y="210" width="510" height="180" rx="6" fill="#ececec" stroke="#888" stroke-width="1.5"/>
  <rect x="622" y="210" width="510" height="28" rx="6" fill="#d0d0d0"/>
  <line x1="622" y1="254" x2="1132" y2="254" stroke="#ccc" stroke-width="1"/>
  <line x1="622" y1="282" x2="1132" y2="282" stroke="#ccc" stroke-width="1"/>
  <line x1="622" y1="310" x2="1132" y2="310" stroke="#ccc" stroke-width="1"/>
  <line x1="622" y1="338" x2="1132" y2="338" stroke="#ccc" stroke-width="1"/>
  <line x1="740" y1="238" x2="740" y2="390" stroke="#ccc" stroke-width="1"/>
  <line x1="880" y1="238" x2="880" y2="390" stroke="#ccc" stroke-width="1"/>
  <line x1="1020" y1="238" x2="1020" y2="390" stroke="#ccc" stroke-width="1"/>
  <line x1="636" y1="248" x2="720" y2="248" class="lh" stroke-width="2"/>
  <line x1="756" y1="248" x2="862" y2="248" class="lh" stroke-width="2"/>
  <line x1="896" y1="248" x2="1004" y2="248" class="lh" stroke-width="2"/>
  <line x1="1034" y1="248" x2="1118" y2="248" class="lh" stroke-width="2"/>
  <line x1="636" y1="268" x2="720" y2="268" class="lh"/>
  <line x1="636" y1="296" x2="720" y2="296" class="lh"/>
  <line x1="636" y1="324" x2="720" y2="324" class="lh"/>
  <line x1="636" y1="352" x2="720" y2="352" class="lh"/>
  <rect x="622" y="408" width="510" height="82" rx="6" fill="#ececec" stroke="#aaa" stroke-width="1.5"/>
  <rect x="622" y="408" width="4" height="82" rx="2" fill="#555"/>
  <rect x="636" y="418" width="130" height="12" rx="3" fill="#ccc" stroke="none"/>
  <line x1="636" y1="440" x2="1118" y2="440" class="lh"/>
  <line x1="636" y1="454" x2="1080" y2="454" class="lh"/>
  <line x1="636" y1="468" x2="1060" y2="468" class="lh"/>
  <rect x="622" y="510" width="510" height="110" rx="6" class="ds"/>
  <rect x="636" y="520" width="22" height="22" rx="4" class="fm"/>
  <line x1="668" y1="528" x2="820" y2="528" class="lh"/>
  <line x1="668" y1="540" x2="900" y2="540" class="lh" stroke-width="1"/>
  <rect x="636" y="554" width="22" height="22" rx="4" class="fm"/>
  <line x1="668" y1="562" x2="800" y2="562" class="lh"/>
  <line x1="668" y1="574" x2="860" y2="574" class="lh" stroke-width="1"/>
  <rect x="636" y="588" width="22" height="22" rx="4" class="fm"/>
  <line x1="668" y1="596" x2="840" y2="596" class="lh"/>
  <line x1="618" y1="712" x2="1158" y2="712" class="lh" stroke-width="1"/>
  <line x1="618" y1="722" x2="820" y2="722" class="lh"/>
  <line x1="1132" y1="722" x2="1158" y2="722" class="lh"/>
  <path d="M 6 6 L 6 20 L 20 20" class="sk"/><path d="M 1194 6 L 1194 20 L 1180 20" class="sk"/>
  <path d="M 6 774 L 6 760 L 20 760" class="sk"/><path d="M 1194 774 L 1194 760 L 1180 760" class="sk"/>
</svg>
